# xmcd
#
# Track frame offsets: 
#        150
#        16005
#        34427
#        48344
#        75653
#        96471
#        119022
#        135390
#        155072
#        171548
#        196909
#        212802
#        223533
#        238221
#        255994
#        292351
#
# Disc length: 4140 seconds
#
# Revision: 0
# Processed by: cddbd v1.5.1PL0 Copyright (c) Steve Scherf et al.
# Submitted via: ExactAudioCopy v0.95b2
#
DISCID=f4102a10
DTITLE=Butch Hancock and Jimmie Dale Gilmore - Sons of Herman Hall, Dall
DTITLE=as, 19 December 1987, 1
DYEAR=1900
DGENRE=
TTITLE0=Hello Stranger
TTITLE1=See the Way
TTITLE2=One Road More
TTITLE3=dialogue > The Ballad of Leo and Leona
TTITLE4=Turn Your Heart to Stone
TTITLE5=Bluebird
TTITLE6=Don't Look For a Heartache
TTITLE7=Firewater Seeks its own Level
TTITLE8=Up to You
TTITLE9=Cause You Never Compromise
TTITLE10=Nothing of the Kind
TTITLE11=I'm Going Back to Where I'm Come From
TTITLE12=She's a Chug Hole
TTITLE13=Dallas
TTITLE14=Already Gone
TTITLE15=(You've Got to) Go to Sleep Alone
EXTD=
EXTT0=
EXTT1=
EXTT2=
EXTT3=
EXTT4=
EXTT5=
EXTT6=
EXTT7=
EXTT8=
EXTT9=
EXTT10=
EXTT11=
EXTT12=
EXTT13=
EXTT14=
EXTT15=
PLAYORDER=
